<svg id="mapa-svg" viewBox="0 0 1000 404" xmlns="http://www.w3.org/2000/svg" role="img" aria-label="Mapa de recurso solar fotovoltaico de Asturias por zonas">
<path d="M125.2,221.5L137.5,224.6L137.0,226.8L144.8,223.8L148.2,226.9L146.8,238.1L141.0,239.8L135.9,236.1L128.6,257.7L134.9,269.5L132.8,279.9L127.8,283.9L132.3,282.7L145.1,292.2L148.0,291.2L150.0,285.1L162.7,283.1L168.5,278.6L164.6,267.8L172.0,252.0L170.7,247.7L173.8,240.6L175.6,240.3L177.4,244.7L182.3,239.1L188.9,237.3L207.8,241.0L209.8,245.1L225.8,239.7L228.0,235.1L229.7,241.1L236.4,236.4L236.0,228.4L243.9,221.6L240.1,217.5L234.8,218.1L229.8,214.0L221.9,202.1L219.8,194.4L210.8,193.0L204.5,187.5L186.6,181.0L192.0,164.6L190.4,159.8L193.7,156.0L184.4,150.2L180.3,152.6L177.5,161.7L164.3,178.3L156.3,181.5L145.3,194.5L131.7,200.9L126.5,214.6L128.0,218.9ZM214.0,241.3L210.9,240.6L212.5,237.7L215.2,240.1ZM220.1,236.1L217.7,234.6L219.9,231.7L221.6,232.5Z" fill="#1E7B45" data-zona="1" stroke="#0B2A20" stroke-width="0.6" stroke-opacity="0.25"><title>Allande · Suroccidente (Narcea): 1243 kWh/kWp·año</title></path>
<path d="M521.9,258.0L521.4,263.4L529.6,272.3L532.3,282.5L553.6,295.9L559.5,309.0L559.5,314.5L573.4,320.4L578.5,325.3L601.7,326.8L603.6,331.9L614.4,333.9L619.6,329.7L627.3,328.6L632.0,332.4L638.8,314.7L642.1,317.3L649.1,314.8L670.7,317.9L673.4,298.4L663.8,302.8L658.8,291.5L652.7,287.1L651.9,281.1L643.3,274.2L637.7,277.0L630.5,274.5L628.8,269.6L623.4,265.9L622.1,259.7L609.7,256.8L606.8,253.1L599.2,257.3L592.8,251.2L582.7,247.7L580.4,243.9L559.7,246.2L534.1,243.9L532.2,248.5L528.1,250.0Z" fill="#F0DEAC" data-zona="5" stroke="#0B2A20" stroke-width="0.6" stroke-opacity="0.25"><title>Aller · Cuencas del Caudal: 1125 kWh/kWp·año</title></path>
<path d="M739.2,200.7L738.7,203.1L750.4,213.8L752.0,218.8L757.3,223.8L762.9,224.8L765.6,229.1L779.7,226.5L787.4,229.0L787.4,237.5L795.7,245.7L796.7,249.9L808.8,248.8L817.7,255.6L818.1,247.9L824.1,240.2L827.8,239.4L809.1,224.3L799.1,210.5L778.2,198.1L769.1,188.5L768.6,185.1L763.7,188.6L757.9,186.7L755.9,189.8L751.5,188.6Z" fill="#F2E6C2" data-zona="7" stroke="#0B2A20" stroke-width="0.6" stroke-opacity="0.25"><title>Amieva · Oriente: 1115 kWh/kWp·año</title></path>
<path d="M464.2,68.4L475.4,69.9L488.7,50.3L477.6,42.5L473.1,42.5L474.2,36.4L471.8,38.7L465.4,37.2L469.3,38.4L469.9,44.1L466.6,44.5L466.1,48.0L462.3,48.4L459.1,52.6L461.5,57.8L460.2,66.8Z" fill="#819740" data-zona="2" stroke="#0B2A20" stroke-width="0.6" stroke-opacity="0.25"><title>Avilés · Avilés y bajo Nalón: 1210 kWh/kWp·año</title></path>
<path d="M314.9,245.7L326.4,252.1L338.9,253.9L342.8,247.3L352.6,242.0L357.8,249.7L361.9,248.7L362.5,253.1L368.0,250.2L367.6,225.2L372.9,208.5L367.9,188.7L369.1,177.7L390.8,164.9L393.8,158.3L392.8,153.6L385.8,152.2L382.4,157.3L367.9,161.2L356.2,154.8L348.7,158.6L342.8,172.3L339.3,171.8L335.1,175.2L332.7,173.4L328.5,178.2L323.9,187.6L317.8,191.7L319.9,204.4L314.7,207.1L315.5,214.7L324.6,223.8L318.8,227.7Z" fill="#1E7B45" data-zona="1" stroke="#0B2A20" stroke-width="0.6" stroke-opacity="0.25"><title>Belmonte de Miranda · Suroccidente (Narcea): 1243 kWh/kWp·año</title></path>
<path d="M589.7,173.7L596.7,179.5L600.2,189.4L607.7,192.4L619.3,191.8L618.7,188.9L625.9,187.1L623.7,180.0L613.9,173.3L611.7,168.5L613.6,165.3L610.7,160.5L604.0,159.3L594.9,162.1Z" fill="#EBCF86" data-zona="6" stroke="#0B2A20" stroke-width="0.6" stroke-opacity="0.25"><title>Bimenes · Cuencas del Nalón: 1143 kWh/kWp·año</title></path>
<path d="M89.7,147.6L90.7,151.2L93.3,146.6L104.1,145.2L109.7,137.9L113.9,138.0L115.5,139.9L112.6,147.9L131.0,146.0L131.3,149.4L137.9,151.8L143.9,159.9L149.4,164.1L152.4,163.3L158.1,140.4L159.1,126.5L157.2,124.7L173.2,116.7L167.4,112.8L172.1,103.9L168.5,103.0L165.0,108.3L153.2,107.5L145.4,100.8L140.3,99.9L136.2,102.7L132.8,111.1L128.3,112.6L106.9,106.8L102.5,111.5L102.0,117.6L106.2,126.2L94.4,144.5Z" fill="#F3E9C8" data-zona="0" stroke="#0B2A20" stroke-width="0.6" stroke-opacity="0.25"><title>Boal · Occidente costero: 1112 kWh/kWp·año</title></path>
<path d="M848.4,158.9L847.0,164.2L850.0,170.3L838.9,190.7L851.2,211.5L850.9,220.8L856.2,220.6L865.1,225.9L868.7,230.8L868.9,237.6L876.8,245.6L876.3,250.2L884.5,251.1L885.4,248.9L896.6,247.6L899.5,244.4L908.8,248.5L914.8,247.3L917.5,228.4L921.2,225.1L920.5,218.9L917.5,208.0L898.4,176.6L896.3,166.7L899.7,156.8L895.5,161.4L883.9,160.5L872.8,155.4L867.2,159.0L856.2,157.5L855.8,161.3L851.7,161.9Z" fill="#F2E6C2" data-zona="7" stroke="#0B2A20" stroke-width="0.6" stroke-opacity="0.25"><title>Cabrales · Oriente: 1115 kWh/kWp·año</title></path>
<path d="M631.0,129.1L636.4,132.2L639.7,138.7L643.3,138.9L641.6,142.7L643.9,148.2L649.7,149.5L656.0,145.6L673.4,144.7L677.7,141.2L679.8,133.7L675.9,126.5L669.9,125.5L662.6,118.0L653.9,119.2L653.4,127.0L649.2,131.4Z" fill="#9C9E3F" data-zona="4" stroke="#0B2A20" stroke-width="0.6" stroke-opacity="0.25"><title>Cabranes · Gijón y Cabo Peñas: 1201 kWh/kWp·año</title></path>
<path d="M397.2,114.6L401.1,122.3L399.4,131.7L408.0,136.3L411.8,130.9L415.7,131.7L418.4,136.1L429.2,135.8L436.9,120.4L438.1,113.1L446.9,99.5L443.0,95.2L439.4,95.2L434.4,81.0L430.2,87.8L425.6,88.0L423.4,96.0L418.3,93.9L405.8,101.7Z" fill="#819740" data-zona="2" stroke="#0B2A20" stroke-width="0.6" stroke-opacity="0.25"><title>Candamo · Avilés y bajo Nalón: 1210 kWh/kWp·año</title></path>
<path d="M146.2,292.1L143.4,294.9L147.5,305.8L158.4,307.8L169.0,316.0L173.1,316.3L173.6,324.7L163.3,334.3L164.4,340.3L168.9,340.5L181.4,350.2L186.9,350.5L195.4,360.6L201.3,357.5L221.4,356.2L224.8,363.0L238.3,365.9L244.8,365.5L253.2,358.0L265.5,359.9L263.9,347.5L275.5,352.5L279.0,346.9L283.8,349.7L290.1,343.6L288.7,334.6L295.0,334.8L296.3,330.0L293.9,323.6L302.7,322.1L308.2,312.6L305.5,303.4L306.7,290.5L302.8,287.5L301.3,273.4L303.1,267.3L309.4,265.6L303.4,256.8L300.9,225.4L291.7,211.0L280.3,212.1L273.7,201.4L237.4,227.0L236.4,236.4L229.7,241.1L228.0,235.1L225.8,239.7L209.8,245.1L207.8,241.0L188.9,237.3L182.3,239.1L177.4,244.7L175.6,240.3L173.8,240.6L170.7,247.7L172.0,252.0L164.6,267.8L168.5,278.6L162.7,283.1L150.0,285.1ZM212.8,241.0L215.2,240.1L213.4,237.7L210.9,240.6ZM218.5,235.5L220.6,235.8L221.6,232.5L218.3,233.1Z" fill="#1E7B45" data-zona="1" stroke="#0B2A20" stroke-width="0.6" stroke-opacity="0.25"><title>Cangas del Narcea · Suroccidente (Narcea): 1243 kWh/kWp·año</title></path>
<path d="M767.7,185.3L778.2,198.1L799.1,210.5L809.1,224.3L827.7,238.8L838.0,228.1L838.4,221.9L828.8,214.4L826.4,195.5L815.6,190.1L816.5,167.1L822.9,155.1L812.4,146.0L813.2,139.1L807.2,137.7L805.4,132.8L791.6,132.4L784.8,124.7L780.1,131.8L774.8,130.1L773.9,132.9L770.6,131.5L758.1,139.8L749.1,139.8L747.5,144.5L750.2,144.1L754.6,151.4L762.2,151.2L759.7,155.1L767.4,160.9L766.4,170.5L763.4,175.5L767.5,176.3Z" fill="#F2E6C2" data-zona="7" stroke="#0B2A20" stroke-width="0.6" stroke-opacity="0.25"><title>Cangas de Onís · Oriente: 1115 kWh/kWp·año</title></path>
<path d="M736.0,98.7L736.1,110.0L741.7,117.7L756.1,106.2L753.8,97.7Z" fill="#F2E6C2" data-zona="7" stroke="#0B2A20" stroke-width="0.6" stroke-opacity="0.25"><title>Caravia · Oriente: 1115 kWh/kWp·año</title></path>
<path d="M497.1,58.7L499.8,61.3L493.9,71.1L508.1,84.5L511.2,80.4L538.8,66.4L537.9,64.8L548.2,56.3L551.5,48.3L550.5,50.6L541.6,47.8L537.2,42.3L533.2,42.3L532.4,36.8L530.1,37.6L527.7,34.0L526.5,38.3Z" fill="#9C9E3F" data-zona="4" stroke="#0B2A20" stroke-width="0.6" stroke-opacity="0.25"><title>Carreño · Gijón y Cabo Peñas: 1201 kWh/kWp·año</title></path>
<path d="M643.3,274.2L651.9,281.1L652.7,287.1L658.8,291.5L663.8,302.8L681.2,294.2L688.2,295.0L690.1,296.5L689.0,300.2L694.8,302.4L700.2,300.0L711.2,303.4L714.4,299.0L723.1,297.4L734.4,300.2L738.4,298.4L742.3,285.6L746.4,282.9L743.4,275.6L736.2,269.1L736.5,254.3L722.4,247.9L719.9,241.4L723.7,234.6L708.6,226.6L709.9,221.5L707.5,215.1L698.7,210.8L691.1,215.3L685.2,212.2L679.3,214.3L667.8,203.3L663.7,205.2L659.7,203.9L660.8,209.1L656.4,211.8L661.3,220.1L661.4,225.9L657.6,226.5L655.7,232.6L659.3,243.4L654.6,246.5L654.3,256.3L648.5,266.3L644.3,268.8Z" fill="#EBCF86" data-zona="6" stroke="#0B2A20" stroke-width="0.6" stroke-opacity="0.25"><title>Caso · Cuencas del Nalón: 1143 kWh/kWp·año</title></path>
<path d="M425.0,47.6L422.4,48.9L423.3,53.5L426.3,53.7L426.8,60.2L433.3,64.8L436.0,70.2L433.3,77.3L437.7,86.7L459.8,75.2L464.2,68.4L460.2,66.8L461.5,57.8L459.1,52.6L462.3,48.4L466.1,48.0L466.6,44.5L469.9,44.1L469.6,40.7L468.4,38.5L462.6,38.1L464.3,40.3L458.9,44.7L452.2,43.5L449.8,45.8L445.5,44.9L443.8,47.6L443.3,45.4L436.2,43.1L436.1,40.3L428.7,42.5L428.8,45.1Z" fill="#819740" data-zona="2" stroke="#0B2A20" stroke-width="0.6" stroke-opacity="0.25"><title>Castrillón · Avilés y bajo Nalón: 1210 kWh/kWp·año</title></path>
<path d="M48.4,99.5L67.3,99.0L64.2,107.8L67.0,111.6L71.6,112.1L70.0,117.9L77.4,128.7L78.6,123.8L84.3,118.5L88.1,119.3L79.8,137.7L84.7,150.8L94.4,144.5L106.2,126.2L102.3,119.0L102.5,111.5L106.9,106.8L113.6,107.5L102.2,93.0L99.3,93.6L94.5,102.1L89.8,105.1L92.6,97.4L84.1,98.4L84.8,90.6L81.2,81.1L83.5,84.1L85.9,79.9L91.6,82.5L92.9,79.6L89.0,73.7L90.6,71.2L95.9,75.1L97.3,68.2L90.8,62.9L83.3,65.6L82.7,69.1L76.1,70.5L72.0,59.9L67.1,56.2L59.6,55.1L57.3,56.7L60.1,60.6L55.9,62.7L56.2,68.6L51.4,78.1L50.7,97.2Z" fill="#F3E9C8" data-zona="0" stroke="#0B2A20" stroke-width="0.6" stroke-opacity="0.25"><title>Castropol · Occidente costero: 1112 kWh/kWp·año</title></path>
<path d="M152.8,50.8L149.5,52.3L149.0,56.8L142.3,56.8L141.9,61.1L147.7,73.9L147.2,84.3L141.0,91.2L136.3,92.3L137.0,101.7L143.8,99.9L152.9,107.5L165.0,108.3L168.5,103.0L172.1,103.9L175.0,98.9L167.1,97.4L172.0,93.9L167.0,81.2L172.5,80.9L167.0,78.7L168.6,72.4L171.7,70.2L171.2,56.8L168.0,52.6L165.1,54.6L163.1,51.7L158.7,54.2L156.8,50.5Z" fill="#F3E9C8" data-zona="0" stroke="#0B2A20" stroke-width="0.6" stroke-opacity="0.25"><title>Coaña · Occidente costero: 1112 kWh/kWp·año</title></path>
<path d="M689.7,119.0L689.6,123.5L695.4,125.8L697.4,129.5L706.2,131.2L711.7,130.4L717.8,121.5L730.9,120.7L734.1,116.9L741.7,117.7L736.1,110.0L736.0,98.7L732.9,93.9L716.4,82.2L717.5,76.2L706.1,67.6L700.1,68.5L700.4,75.8L690.6,82.9L687.9,95.5L691.0,102.9L688.7,106.3L691.0,111.2Z" fill="#9C9E3F" data-zona="4" stroke="#0B2A20" stroke-width="0.6" stroke-opacity="0.25"><title>Colunga · Gijón y Cabo Peñas: 1201 kWh/kWp·año</title></path>
<path d="M459.8,75.2L461.4,77.3L469.7,75.8L473.9,86.9L478.2,85.2L480.2,89.2L497.4,97.0L502.3,93.4L507.5,95.9L511.7,87.1L493.9,71.1L499.8,61.3L493.8,57.1L484.9,56.8L475.4,69.9L465.7,67.8Z" fill="#819740" data-zona="2" stroke="#0B2A20" stroke-width="0.6" stroke-opacity="0.25"><title>Corvera de Asturias · Avilés y bajo Nalón: 1210 kWh/kWp·año</title></path>
<path d="M313.8,57.6L317.4,64.4L310.6,71.4L311.8,75.0L319.9,72.9L321.5,69.8L333.1,65.9L339.9,60.5L345.5,63.8L341.9,67.2L343.5,70.3L340.5,78.9L343.1,82.1L342.0,88.2L345.8,90.1L354.4,88.0L362.5,74.2L372.7,83.1L376.8,75.5L378.9,77.9L389.1,75.3L397.2,56.8L396.2,54.2L393.0,55.6L391.8,52.4L387.4,53.0L384.7,49.3L383.3,51.6L378.9,49.9L372.8,52.9L370.7,49.8L372.1,44.8L366.5,48.2L364.3,41.9L360.2,44.9L357.7,39.9L351.0,36.8L351.8,40.0L346.8,45.7L342.3,45.1L335.7,49.7L331.3,49.1L331.9,51.4L328.9,53.1L326.7,51.0L326.5,53.1L318.3,54.0Z" fill="#819740" data-zona="2" stroke="#0B2A20" stroke-width="0.6" stroke-opacity="0.25"><title>Cudillero · Avilés y bajo Nalón: 1210 kWh/kWp·año</title></path>
<path d="M196.5,360.1L203.5,381.7L207.3,384.8L213.2,382.2L215.6,386.5L225.7,385.3L240.0,388.4L242.1,383.7L251.5,380.0L259.2,384.4L263.4,377.5L280.5,374.3L277.3,370.5L280.3,361.8L277.0,360.4L253.2,358.0L244.8,365.5L238.3,365.9L224.8,363.0L221.4,356.2L201.3,357.5ZM185.2,350.3L182.6,350.0L180.3,359.7L183.3,364.2L190.6,362.8L193.2,359.3Z" fill="#1E7B45" data-zona="1" stroke="#0B2A20" stroke-width="0.6" stroke-opacity="0.25"><title>Degaña · Suroccidente (Narcea): 1243 kWh/kWp·año</title></path>
<path d="M110.6,97.2L110.8,105.8L115.4,110.2L128.3,112.6L134.7,108.6L137.0,101.7L136.3,92.3L141.0,91.2L147.2,84.3L147.7,73.9L141.9,61.1L142.0,55.2L138.7,57.7L130.8,51.3L123.8,53.5L122.8,49.4L118.9,51.4L118.4,49.5L114.2,53.0L112.6,56.0L115.2,64.1L111.6,72.4L114.4,74.7L110.8,79.3L116.0,82.6Z" fill="#F3E9C8" data-zona="0" stroke="#0B2A20" stroke-width="0.6" stroke-opacity="0.25"><title>El Franco · Occidente costero: 1112 kWh/kWp·año</title></path>
<path d="M510.2,82.0L510.5,90.4L522.2,98.1L525.0,104.7L530.1,105.7L537.0,112.6L542.9,112.0L545.2,107.7L548.2,110.9L555.6,103.2L561.4,109.4L575.3,109.0L583.2,115.1L590.3,115.7L597.7,115.0L597.9,93.0L603.3,84.4L606.1,84.9L601.5,76.4L601.9,72.5L597.1,68.9L598.4,66.2L595.7,61.3L588.8,60.1L585.7,55.4L581.5,60.0L577.6,59.2L574.1,64.3L569.7,63.5L568.4,60.2L565.9,61.8L568.1,63.0L563.6,62.5L563.1,65.0L562.5,62.4L557.4,62.8L562.1,56.9L560.0,54.6L556.5,60.0L554.5,50.6L558.0,54.3L557.4,52.2L562.2,52.3L561.5,50.1L563.8,49.2L559.6,50.0L557.4,45.4L564.4,44.8L564.0,41.1L556.3,43.9L556.2,48.5L551.5,48.3L548.2,56.3L537.9,64.8L538.8,66.4Z" fill="#9C9E3F" data-zona="4" stroke="#0B2A20" stroke-width="0.6" stroke-opacity="0.25"><title>Gijón · Gijón y Cabo Peñas: 1201 kWh/kWp·año</title></path>
<path d="M465.3,37.0L471.8,38.7L474.2,36.4L473.1,42.5L477.6,42.5L488.4,49.7L486.4,56.2L496.4,58.9L526.5,38.3L529.5,31.6L520.8,27.0L523.8,24.4L523.7,18.1L519.6,19.0L518.4,15.3L513.7,17.5L513.1,12.4L509.0,11.4L506.2,13.6L502.0,3.0L495.4,5.9L495.2,15.5L492.2,15.9L492.4,18.1L484.6,22.4L479.7,19.5L474.8,21.7L474.6,29.7L469.5,34.7L462.8,35.0Z" fill="#819740" data-zona="2" stroke="#0B2A20" stroke-width="0.6" stroke-opacity="0.25"><title>Gozón · Avilés y bajo Nalón: 1210 kWh/kWp·año</title></path>
<path d="M367.6,248.8L376.6,239.7L381.9,238.3L383.8,231.9L388.4,231.6L389.9,218.1L393.4,210.3L392.5,199.2L400.9,191.7L411.3,186.8L416.4,195.1L412.0,198.6L411.7,204.6L412.8,208.7L416.5,209.7L429.0,196.5L440.8,191.4L442.4,187.5L436.2,172.1L453.9,157.2L451.6,154.1L453.2,151.2L450.0,148.9L451.0,143.2L444.2,141.5L441.6,143.2L438.0,139.6L434.1,139.9L431.1,135.5L418.4,136.1L414.1,131.1L408.0,136.3L399.4,131.7L395.0,136.6L397.2,145.6L392.4,149.8L393.8,158.3L391.0,164.7L369.1,177.7L367.9,188.7L372.9,208.5L367.6,225.2Z" fill="#D5AE3D" data-zona="3" stroke="#0B2A20" stroke-width="0.6" stroke-opacity="0.25"><title>Grado · Centro (Oviedo): 1182 kWh/kWp·año</title></path>
<path d="M70.9,235.9L73.4,239.2L79.1,238.1L81.4,244.1L75.5,257.5L78.4,266.4L83.1,268.7L84.4,273.9L90.2,275.5L91.8,271.4L98.1,270.9L105.0,263.5L111.0,262.5L110.4,257.7L117.9,245.4L117.0,250.6L119.9,249.6L122.1,254.5L128.6,257.7L135.9,236.1L141.0,239.8L146.8,238.1L148.2,226.9L144.8,223.8L137.0,226.8L137.5,224.6L126.7,222.9L124.1,219.7L116.7,218.0L111.3,218.8L110.6,222.0L106.8,221.7L105.2,224.9L103.1,218.8L99.8,217.4L88.2,220.9L84.9,226.2L89.1,233.3L88.2,235.9L81.8,226.8L75.0,231.1L76.9,235.5Z" fill="#1E7B45" data-zona="1" stroke="#0B2A20" stroke-width="0.6" stroke-opacity="0.25"><title>Grandas de Salime · Suroccidente (Narcea): 1243 kWh/kWp·año</title></path>
<path d="M80.9,311.9L81.4,325.4L78.6,327.7L75.0,322.0L73.4,328.0L69.6,329.5L69.5,333.2L73.6,335.9L77.6,345.3L82.4,348.2L81.8,345.7L84.7,345.4L82.4,342.9L81.5,329.6L84.5,324.5L88.2,326.5L90.4,337.4L102.0,348.5L112.9,347.8L119.0,351.7L129.8,365.1L130.2,373.6L127.5,380.2L129.8,386.4L154.1,395.5L155.1,399.8L153.0,403.7L159.4,403.6L171.9,385.9L175.8,387.1L184.3,383.3L203.5,381.7L196.4,360.6L194.0,358.8L190.6,362.8L183.3,364.2L180.3,359.7L182.6,350.0L168.9,340.5L164.4,340.3L163.3,334.3L173.6,324.7L173.1,316.3L169.0,316.0L158.4,307.8L147.5,305.8L143.4,294.9L145.1,292.2L132.3,282.7L122.5,287.4L116.3,296.4L107.9,296.1L99.9,305.6L97.1,301.3L91.2,298.8L90.4,302.1L86.3,304.1L86.8,308.2Z" fill="#1E7B45" data-zona="1" stroke="#0B2A20" stroke-width="0.6" stroke-opacity="0.25"><title>Ibias · Suroccidente (Narcea): 1243 kWh/kWp·año</title></path>
<path d="M90.4,151.1L97.8,161.7L97.9,176.7L107.9,175.3L112.2,182.6L131.0,190.0L131.7,200.9L146.3,193.8L159.4,179.4L150.0,172.5L152.4,163.3L149.4,164.1L143.9,159.9L137.9,151.8L131.3,149.4L131.2,146.1L112.6,147.9L115.5,139.9L113.9,138.0L109.7,137.9L104.1,145.2L93.3,146.6Z" fill="#F3E9C8" data-zona="0" stroke="#0B2A20" stroke-width="0.6" stroke-opacity="0.25"><title>Illano · Occidente costero: 1112 kWh/kWp·año</title></path>
<path d="M437.7,86.7L436.1,88.6L439.4,95.2L453.2,100.6L459.9,92.8L473.8,86.8L469.7,75.8L461.4,77.3L459.8,75.2Z" fill="#819740" data-zona="2" stroke="#0B2A20" stroke-width="0.6" stroke-opacity="0.25"><title>Illas · Avilés y bajo Nalón: 1210 kWh/kWp·año</title></path>
<path d="M528.3,194.9L536.0,194.4L542.9,201.7L549.6,200.5L554.2,203.2L559.0,212.0L556.9,223.6L571.6,225.4L571.2,219.8L575.9,207.1L573.5,195.7L567.2,193.7L575.1,185.5L585.3,183.4L586.5,178.6L570.8,167.6L561.2,172.7L554.0,170.6L550.9,165.1L541.9,170.8L538.2,171.4L535.9,168.8L532.0,183.8L527.3,187.7Z" fill="#EBCF86" data-zona="6" stroke="#0B2A20" stroke-width="0.6" stroke-opacity="0.25"><title>Langreo · Cuencas del Nalón: 1143 kWh/kWp·año</title></path>
<path d="M580.4,243.9L582.7,247.7L592.8,251.2L599.2,257.3L606.8,253.1L609.3,256.5L617.0,259.0L627.3,258.8L628.3,243.3L634.2,239.0L634.7,231.5L637.2,230.0L637.0,223.7L639.7,222.2L640.7,216.8L638.3,212.1L643.1,211.2L642.3,204.5L630.8,199.3L629.2,200.9L625.9,187.1L618.7,188.9L619.3,191.8L614.9,190.7L607.1,193.3L594.4,215.3L594.0,222.1L587.2,222.4L581.4,229.6L582.6,237.5Z" fill="#EBCF86" data-zona="6" stroke="#0B2A20" stroke-width="0.6" stroke-opacity="0.25"><title>Laviana · Cuencas del Nalón: 1143 kWh/kWp·año</title></path>
<path d="M457.6,328.4L458.8,334.2L467.4,337.8L475.2,347.2L484.8,346.4L483.0,348.9L484.3,354.0L494.3,352.8L501.3,361.7L508.5,360.0L515.9,362.6L532.3,357.4L530.0,350.6L536.8,334.4L541.4,331.7L544.2,321.4L559.2,314.0L559.5,309.0L553.6,295.9L532.3,282.5L529.6,272.3L521.4,263.4L521.1,259.4L528.1,250.0L525.6,245.2L522.2,243.7L518.2,246.7L511.1,239.5L502.2,238.8L501.0,241.2L493.7,242.5L486.3,257.3L477.7,260.3L477.8,269.3L486.0,286.5L484.3,293.9L487.2,298.7L485.1,302.8L487.3,305.0L486.9,314.6L476.6,317.4L471.8,313.1L465.8,325.5Z" fill="#F0DEAC" data-zona="5" stroke="#0B2A20" stroke-width="0.6" stroke-opacity="0.25"><title>Lena · Cuencas del Caudal: 1125 kWh/kWp·año</title></path>
<path d="M200.9,103.8L196.4,114.5L203.8,116.9L206.4,124.6L214.8,118.0L218.6,108.9L233.7,106.4L243.7,117.2L249.9,120.0L251.9,117.5L257.5,120.7L265.2,115.7L268.2,118.7L272.9,117.1L274.3,122.4L280.3,125.0L281.8,133.0L296.3,138.0L298.5,127.1L310.5,116.6L309.4,114.9L316.5,102.5L313.9,99.5L320.1,94.3L327.9,95.7L334.8,85.9L342.0,86.5L343.1,82.1L340.5,78.9L343.5,70.3L341.8,67.6L345.5,63.8L339.9,60.5L333.1,65.9L321.5,69.8L319.9,72.9L311.8,75.0L310.6,71.4L317.4,64.4L313.5,57.8L304.1,59.4L304.9,55.7L299.0,56.9L294.0,54.6L291.3,56.8L287.2,55.1L281.7,58.6L266.6,49.1L265.0,59.9L254.8,59.1L250.6,61.5L243.4,59.7L243.0,62.5L239.5,57.6L234.0,59.8L233.6,57.1L226.5,55.9L218.6,57.9L216.6,51.7L211.1,54.1L212.8,55.2L203.6,68.3L209.6,71.6L203.5,79.5L206.4,81.4L202.0,90.9Z" fill="#1E7B45" data-zona="1" stroke="#0B2A20" stroke-width="0.6" stroke-opacity="0.25"><title>Valdés · Suroccidente (Narcea): 1243 kWh/kWp·año</title></path>
<path d="M454.6,100.0L464.0,111.2L464.0,115.4L473.0,118.4L472.4,124.5L476.9,129.1L484.7,127.9L485.6,133.1L488.6,123.2L494.5,127.1L492.8,132.4L494.0,130.0L499.5,132.9L500.6,130.1L501.8,132.6L507.7,129.1L516.9,131.0L521.8,122.3L525.1,122.5L533.7,110.7L530.1,105.7L524.8,104.5L522.2,98.1L513.2,93.1L513.2,90.7L510.5,90.4L507.5,95.9L502.3,93.4L497.4,97.0L480.2,89.2L478.2,85.2L466.4,91.5L463.6,90.3Z" fill="#D5AE3D" data-zona="3" stroke="#0B2A20" stroke-width="0.6" stroke-opacity="0.25"><title>Llanera · Centro (Oviedo): 1182 kWh/kWp·año</title></path>
<path d="M806.9,133.2L807.2,137.7L813.3,139.3L812.4,146.0L818.9,149.5L822.2,155.0L832.3,154.8L843.0,161.4L848.4,158.9L851.7,161.9L855.8,161.3L856.2,157.5L867.2,159.0L872.0,155.4L883.9,160.5L895.5,161.4L899.7,156.8L924.9,155.2L938.6,161.2L958.3,163.4L960.3,162.8L956.6,162.7L958.0,153.5L960.4,154.3L959.6,151.2L962.6,150.3L967.8,151.1L970.4,142.8L975.2,139.5L973.3,137.6L959.4,139.7L959.7,138.0L946.7,137.0L936.2,132.5L929.3,134.8L929.7,130.8L924.3,131.4L919.9,127.7L914.0,129.6L904.3,122.2L897.0,120.9L896.9,124.0L896.6,120.8L888.6,121.0L886.8,116.9L883.1,118.9L879.2,116.8L877.9,120.1L876.9,113.3L863.7,115.9L860.1,112.3L845.4,107.8L844.4,105.1L840.6,107.9L836.9,105.8L825.3,105.8L822.3,116.5L818.8,119.0L820.2,125.3L809.9,127.5L809.9,132.4Z" fill="#F2E6C2" data-zona="7" stroke="#0B2A20" stroke-width="0.6" stroke-opacity="0.25"><title>Llanes · Oriente: 1115 kWh/kWp·año</title></path>
<path d="M498.7,198.5L496.7,203.9L502.5,216.3L500.1,241.2L503.2,238.6L511.1,239.5L518.2,246.7L522.2,243.7L525.6,245.2L528.1,250.0L532.2,248.5L534.1,243.9L559.7,246.2L580.4,243.9L582.1,241.8L581.4,229.6L570.9,225.0L556.9,223.6L559.3,215.8L557.8,206.8L549.6,200.5L543.0,201.8L536.0,194.4L527.9,195.0L523.6,199.5L512.6,194.6Z" fill="#F0DEAC" data-zona="5" stroke="#0B2A20" stroke-width="0.6" stroke-opacity="0.25"><title>Mieres · Cuencas del Caudal: 1125 kWh/kWp·año</title></path>
<path d="M457.5,201.5L461.5,207.0L461.2,211.6L456.7,216.9L462.0,225.5L468.7,219.3L480.6,214.2L488.3,219.4L494.2,218.6L497.7,222.2L501.4,220.8L502.4,216.0L496.6,203.2L498.7,198.5L491.2,192.5L491.1,187.1L486.7,186.3L478.5,191.2L470.9,191.8L458.8,197.9Z" fill="#F0DEAC" data-zona="5" stroke="#0B2A20" stroke-width="0.6" stroke-opacity="0.25"><title>Morcín · Cuencas del Caudal: 1125 kWh/kWp·año</title></path>
<path d="M396.8,60.5L397.5,64.3L401.7,64.4L404.1,67.3L413.6,66.5L411.4,59.3L413.7,49.5L413.3,52.5L409.0,53.2L407.9,55.8L402.9,53.7L402.4,56.5L397.2,56.8Z" fill="#819740" data-zona="2" stroke="#0B2A20" stroke-width="0.6" stroke-opacity="0.25"><title>Muros de Nalón · Avilés y bajo Nalón: 1210 kWh/kWp·año</title></path>
<path d="M604.4,159.3L612.1,161.1L613.9,173.3L623.7,180.0L629.2,200.9L630.8,199.3L636.6,201.1L636.7,194.0L642.1,189.3L643.5,179.7L660.0,166.6L656.0,145.6L649.7,149.5L644.8,149.1L641.6,142.7L643.3,138.9L639.7,138.7L636.4,132.2L631.0,129.1L631.0,135.4L626.7,138.5L609.3,141.4Z" fill="#EBCF86" data-zona="6" stroke="#0B2A20" stroke-width="0.6" stroke-opacity="0.25"><title>Nava · Cuencas del Nalón: 1143 kWh/kWp·año</title></path>
<path d="M170.3,88.1L177.0,86.5L180.2,89.3L193.8,89.4L201.8,93.4L206.4,81.4L203.6,79.3L209.6,71.6L203.6,68.3L212.8,55.2L210.6,55.2L212.1,51.7L208.1,48.2L205.9,51.2L201.2,50.5L200.9,52.7L196.0,51.1L186.3,55.6L177.0,52.8L171.2,56.8L171.7,70.2L168.6,72.4L167.0,78.7L172.4,80.6L170.7,82.4L167.0,81.2L167.3,85.9Z" fill="#F3E9C8" data-zona="0" stroke="#0B2A20" stroke-width="0.6" stroke-opacity="0.25"><title>Navia · Occidente costero: 1112 kWh/kWp·año</title></path>
<path d="M543.5,166.3L542.7,169.5L546.8,167.9ZM551.6,145.2L556.2,141.3L552.1,132.6L547.4,137.2L545.9,144.1ZM560.2,125.6L566.1,122.1L563.6,116.3L561.9,121.6L558.4,123.5Z" fill="#EBCF86" data-zona="6" stroke="#0B2A20" stroke-width="0.6" stroke-opacity="0.25"><title>Noreña · Cuencas del Nalón: 1143 kWh/kWp·año</title></path>
<path d="M822.9,155.1L816.5,167.1L815.6,190.1L826.4,195.5L828.8,214.4L838.4,221.9L838.2,227.5L846.2,226.8L850.9,220.8L851.3,212.2L838.9,190.7L850.0,170.3L847.0,164.2L848.4,158.9L843.0,161.4L832.3,154.8Z" fill="#F2E6C2" data-zona="7" stroke="#0B2A20" stroke-width="0.6" stroke-opacity="0.25"><title>Onís · Oriente: 1115 kWh/kWp·año</title></path>
<path d="M442.4,187.5L451.2,184.1L455.4,178.6L460.3,189.3L472.8,179.0L484.9,177.7L489.7,174.8L490.9,182.2L493.7,185.0L502.3,179.8L501.2,174.3L505.8,178.5L500.3,187.3L506.5,193.3L502.6,196.8L512.6,194.6L523.6,199.5L528.3,194.9L527.3,187.7L532.0,183.8L534.2,171.6L535.9,168.8L538.9,170.8L538.9,167.3L534.2,164.6L525.8,165.2L526.1,161.0L519.7,147.4L515.1,147.1L514.2,143.4L510.5,142.1L506.4,130.7L508.9,129.4L501.8,132.6L500.4,130.1L498.1,133.3L494.0,130.0L492.8,132.4L494.5,127.1L488.6,123.2L485.6,133.1L484.7,127.9L476.9,129.1L472.4,124.5L468.4,138.3L463.9,139.1L466.8,140.8L465.4,143.2L469.0,144.0L466.9,148.0L469.6,147.9L469.5,151.0L465.0,153.9L459.2,150.6L456.5,153.6L457.1,147.0L454.4,148.2L454.7,145.4L453.1,147.6L451.0,145.8L450.0,148.9L453.2,151.2L451.6,154.1L453.9,157.2L436.2,172.1Z" fill="#D5AE3D" data-zona="3" stroke="#0B2A20" stroke-width="0.6" stroke-opacity="0.25"><title>Oviedo · Centro (Oviedo): 1182 kWh/kWp·año</title></path>
<path d="M716.0,123.9L723.3,129.6L731.6,145.4L727.9,154.9L731.9,170.3L726.0,175.4L727.9,183.9L733.8,190.5L734.0,197.6L739.2,200.7L751.5,188.6L753.4,190.2L757.9,186.7L767.7,187.5L767.5,176.3L763.4,175.5L766.4,170.5L767.4,160.9L759.7,155.1L762.2,151.2L754.6,151.4L750.2,144.1L747.4,144.2L750.3,139.0L758.1,139.8L770.6,131.5L773.9,132.9L774.8,130.1L780.7,131.5L784.8,124.7L769.6,121.8L761.8,123.7L756.8,128.4L753.3,123.8L754.0,120.0L747.1,116.1L734.1,116.9L730.9,120.7L721.7,120.6Z" fill="#F2E6C2" data-zona="7" stroke="#0B2A20" stroke-width="0.6" stroke-opacity="0.25"><title>Parres · Oriente: 1115 kWh/kWp·año</title></path>
<path d="M898.0,162.1L896.3,166.7L898.4,176.6L918.3,211.4L924.7,208.9L929.0,201.1L942.0,193.8L946.8,183.7L943.4,177.4L953.6,170.2L950.2,162.4L938.6,161.2L924.9,155.2L899.7,156.8Z" fill="#F2E6C2" data-zona="7" stroke="#0B2A20" stroke-width="0.6" stroke-opacity="0.25"><title>Peñamellera Alta · Oriente: 1115 kWh/kWp·año</title></path>
<path d="M926.8,205.9L954.7,205.7L952.8,201.4L963.7,189.5L984.5,195.6L984.2,201.6L986.2,204.8L989.8,204.6L995.5,199.6L997.0,191.9L993.8,174.6L995.3,169.2L987.4,165.3L950.2,162.4L953.3,171.8L943.4,177.4L946.8,183.7L942.0,193.8L929.0,201.1Z" fill="#F2E6C2" data-zona="7" stroke="#0B2A20" stroke-width="0.6" stroke-opacity="0.25"><title>Peñamellera Baja · Oriente: 1115 kWh/kWp·año</title></path>
<path d="M100.6,217.4L105.2,224.9L106.8,221.7L110.6,222.0L111.3,218.8L126.4,221.1L128.3,216.7L126.5,214.6L131.6,204.4L131.0,190.0L109.6,180.0L106.3,199.1L108.3,200.3L108.4,205.8L106.4,206.8L108.1,208.0L103.2,210.4Z" fill="#F3E9C8" data-zona="0" stroke="#0B2A20" stroke-width="0.6" stroke-opacity="0.25"><title>Pesoz · Occidente costero: 1112 kWh/kWp·año</title></path>
<path d="M636.6,201.1L642.3,204.5L642.4,209.9L656.4,212.0L660.8,209.1L659.7,203.9L663.7,205.2L667.8,203.3L679.3,214.3L685.2,212.2L691.1,215.3L699.3,210.8L706.7,214.4L709.7,219.8L714.3,206.2L722.9,205.1L727.9,197.3L730.9,199.2L734.3,197.0L733.8,190.5L727.9,183.9L726.0,175.4L731.9,170.3L727.9,154.9L731.6,145.4L723.3,129.6L716.0,123.9L711.4,130.6L705.6,131.1L697.4,129.5L690.0,122.8L688.4,124.8L686.6,123.5L682.4,127.9L677.7,141.2L673.4,144.7L656.0,145.6L659.7,167.7L643.5,179.7L642.1,189.3L636.7,194.0Z" fill="#EBCF86" data-zona="6" stroke="#0B2A20" stroke-width="0.6" stroke-opacity="0.25"><title>Piloña · Cuencas del Nalón: 1143 kWh/kWp·año</title></path>
<path d="M709.7,219.8L708.6,226.6L723.7,234.6L719.9,241.4L722.4,247.9L736.5,254.3L736.2,269.1L743.4,275.6L746.4,282.9L742.3,285.6L739.4,295.7L741.5,296.8L746.2,291.9L753.9,290.6L761.5,284.0L764.1,290.3L778.7,290.9L781.0,287.8L781.6,269.7L788.6,257.4L788.1,251.1L794.5,253.5L796.7,250.3L795.7,245.7L787.4,237.5L787.4,229.0L779.7,226.5L765.6,229.1L760.9,223.3L754.6,221.5L750.4,213.8L744.3,210.2L738.7,203.1L739.2,200.7L734.6,197.7L730.9,199.2L727.9,197.3L722.9,205.1L714.3,206.2Z" fill="#F2E6C2" data-zona="7" stroke="#0B2A20" stroke-width="0.6" stroke-opacity="0.25"><title>Ponga · Oriente: 1115 kWh/kWp·año</title></path>
<path d="M354.4,88.0L361.1,102.5L356.5,107.2L371.0,111.6L373.1,116.1L374.8,115.1L381.8,120.7L384.5,128.6L388.3,126.7L391.1,117.2L397.9,113.8L405.8,101.7L418.3,93.9L410.9,85.9L413.7,75.2L407.9,67.9L399.4,65.4L396.8,61.5L392.3,65.7L389.1,75.3L378.9,77.9L376.8,75.5L372.7,83.1L362.5,74.2Z" fill="#819740" data-zona="2" stroke="#0B2A20" stroke-width="0.6" stroke-opacity="0.25"><title>Pravia · Avilés y bajo Nalón: 1210 kWh/kWp·año</title></path>
<path d="M403.4,222.0L407.7,226.7L405.4,236.5L407.8,245.7L418.4,255.6L426.4,256.8L433.5,249.3L431.8,243.9L434.9,230.9L440.9,228.7L445.4,222.1L451.9,221.9L452.5,215.2L449.2,212.6L450.6,205.8L444.6,204.6L440.1,211.0L440.9,205.2L434.5,201.2L434.7,195.3L430.6,195.6L417.4,209.4L412.8,208.7L409.6,217.1Z" fill="#D5AE3D" data-zona="3" stroke="#0B2A20" stroke-width="0.6" stroke-opacity="0.25"><title>Proaza · Centro (Oviedo): 1182 kWh/kWp·año</title></path>
<path d="M420.8,256.3L427.3,262.7L428.6,272.5L432.9,275.9L433.4,284.1L436.8,283.9L440.5,289.1L437.7,298.7L441.8,308.0L440.9,313.4L443.9,313.5L446.7,308.7L452.3,309.7L452.5,312.7L456.7,316.0L453.9,322.3L457.6,328.4L465.8,325.5L471.8,313.1L476.6,317.4L486.5,315.3L487.3,305.0L485.1,302.8L487.2,298.7L484.3,293.9L486.0,286.5L476.8,266.4L477.7,260.3L484.1,257.1L476.9,250.7L473.0,240.8L467.8,236.9L466.8,231.2L463.9,230.3L464.1,227.3L457.2,218.8L461.5,207.0L457.5,201.5L450.6,205.8L449.2,212.6L452.5,215.2L451.7,222.3L445.4,222.1L440.9,228.7L434.9,230.9L431.8,243.9L433.4,249.7L430.3,250.5L428.0,256.0Z" fill="#F0DEAC" data-zona="5" stroke="#0B2A20" stroke-width="0.6" stroke-opacity="0.25"><title>Quirós · Cuencas del Caudal: 1125 kWh/kWp·año</title></path>
<path d="M429.2,135.8L441.6,143.2L444.6,141.5L451.0,143.2L452.9,147.5L454.1,145.2L454.2,148.1L457.0,146.8L456.3,153.5L459.5,150.5L465.4,153.9L469.8,148.5L467.1,148.3L469.1,144.3L465.4,143.2L466.8,140.8L463.9,139.1L468.4,138.3L473.0,118.4L464.0,115.4L464.0,111.2L456.8,100.9L447.8,99.0L438.1,113.1L436.9,120.4Z" fill="#D5AE3D" data-zona="3" stroke="#0B2A20" stroke-width="0.6" stroke-opacity="0.25"><title>Las Regueras · Centro (Oviedo): 1182 kWh/kWp·año</title></path>
<path d="M958.0,154.9L956.6,162.7L989.6,166.4L991.1,161.4L989.0,159.8L992.2,158.2L990.7,154.4L996.0,154.7L1000.0,146.9L999.3,140.7L991.1,137.3L982.5,138.3L982.9,140.4L979.0,141.4L975.2,139.5L970.4,142.8L967.8,151.1L959.6,151.2L960.6,154.1Z" fill="#F2E6C2" data-zona="7" stroke="#0B2A20" stroke-width="0.6" stroke-opacity="0.25"><title>Ribadedeva · Oriente: 1115 kWh/kWp·año</title></path>
<path d="M744.5,116.2L754.0,120.0L753.3,123.8L756.8,128.4L761.8,123.7L773.2,121.7L782.9,123.6L794.4,133.5L805.5,133.8L809.9,132.4L809.9,127.5L820.2,125.3L818.8,119.0L822.3,116.5L823.7,106.7L799.9,105.5L795.4,101.6L789.9,103.4L785.8,98.6L773.9,97.9L768.6,93.9L753.8,97.7L756.0,106.5Z" fill="#F2E6C2" data-zona="7" stroke="#0B2A20" stroke-width="0.6" stroke-opacity="0.25"><title>Ribadesella · Oriente: 1115 kWh/kWp·año</title></path>
<path d="M464.2,187.3L466.1,194.3L486.7,186.3L491.1,187.1L491.2,192.5L497.9,198.6L506.5,193.3L500.3,188.0L505.8,178.5L501.2,174.3L502.3,179.8L498.7,183.3L492.1,184.6L491.8,178.0L488.5,174.9L484.9,177.7L472.8,179.0Z" fill="#D5AE3D" data-zona="3" stroke="#0B2A20" stroke-width="0.6" stroke-opacity="0.25"><title>Ribera de Arriba · Centro (Oviedo): 1182 kWh/kWp·año</title></path>
<path d="M462.0,225.5L463.9,230.3L466.8,231.2L467.8,236.9L473.0,240.8L476.9,250.7L484.1,257.1L486.3,257.3L493.9,242.2L500.1,241.2L501.4,220.8L497.7,222.2L494.2,218.6L488.3,219.4L480.6,214.2L468.7,219.3Z" fill="#F0DEAC" data-zona="5" stroke="#0B2A20" stroke-width="0.6" stroke-opacity="0.25"><title>Riosa · Cuencas del Caudal: 1125 kWh/kWp·año</title></path>
<path d="M306.8,120.9L313.4,134.6L311.0,137.7L312.2,140.2L320.4,149.1L317.2,155.7L330.6,163.2L324.6,173.1L329.0,177.6L332.7,173.4L335.1,175.2L339.3,171.8L342.8,172.3L348.7,158.6L356.2,154.8L367.9,161.2L382.4,157.3L385.8,152.2L393.4,154.1L393.0,148.1L397.2,145.6L395.0,136.6L399.4,131.7L401.1,122.3L397.2,114.6L393.9,115.4L389.3,119.8L388.3,126.7L384.5,128.6L381.8,120.7L374.8,115.1L373.1,116.1L371.0,111.6L356.5,107.2L361.1,102.5L354.4,88.0L345.8,90.1L337.2,85.8L334.8,85.9L327.9,95.7L320.1,94.3L313.9,99.5L316.5,102.7Z" fill="#819740" data-zona="2" stroke="#0B2A20" stroke-width="0.6" stroke-opacity="0.25"><title>Salas · Avilés y bajo Nalón: 1210 kWh/kWp·año</title></path>
<path d="M571.6,225.4L581.4,229.6L587.2,222.4L593.8,222.2L594.2,215.8L600.7,201.7L609.0,192.6L600.2,189.4L596.7,179.5L589.7,173.7L586.5,177.5L585.4,176.1L585.3,183.4L575.1,185.5L567.2,193.7L573.5,195.7L575.9,207.1L571.2,219.8Z" fill="#EBCF86" data-zona="6" stroke="#0B2A20" stroke-width="0.6" stroke-opacity="0.25"><title>San Martín del Rey Aurelio · Cuencas del Nalón: 1143 kWh/kWp·año</title></path>
<path d="M72.6,207.9L72.2,216.6L76.5,220.6L73.6,228.2L75.5,230.4L81.8,226.8L88.0,236.0L89.1,233.3L84.9,226.2L88.2,220.9L100.6,217.4L103.2,210.4L107.9,208.4L107.6,187.1L109.6,180.0L111.2,180.5L107.9,175.3L97.9,176.7L96.6,159.4L96.7,163.6L92.4,166.2L82.5,181.5L80.1,200.7L75.7,201.1Z" fill="#F3E9C8" data-zona="0" stroke="#0B2A20" stroke-width="0.6" stroke-opacity="0.25"><title>San Martín de Oscos · Occidente costero: 1112 kWh/kWp·año</title></path>
<path d="M45.9,186.0L41.5,203.6L45.2,217.6L50.9,224.2L55.5,225.8L60.8,233.5L61.9,229.0L64.7,228.5L67.8,236.6L76.9,235.5L73.6,228.2L76.5,220.6L72.2,216.6L72.6,207.9L63.5,206.5L61.1,196.2L54.9,191.1L55.2,184.1Z" fill="#F3E9C8" data-zona="0" stroke="#0B2A20" stroke-width="0.6" stroke-opacity="0.25"><title>Santa Eulalia de Oscos · Occidente costero: 1112 kWh/kWp·año</title></path>
<path d="M0.7,139.2L2.2,146.3L7.3,147.5L8.8,150.4L16.3,145.9L18.0,148.9L25.7,142.3L31.5,147.6L32.8,133.4L30.4,131.0L30.1,124.2L27.2,122.6L20.3,125.2L15.1,121.5L3.6,121.7L4.8,126.0L2.3,130.0L5.1,134.8L3.3,134.3Z" fill="#F3E9C8" data-zona="0" stroke="#0B2A20" stroke-width="0.6" stroke-opacity="0.25"><title>San Tirso de Abres · Occidente costero: 1112 kWh/kWp·año</title></path>
<path d="M434.7,195.3L434.5,201.2L440.9,205.2L440.1,211.0L444.6,204.6L454.3,204.4L458.8,197.9L465.4,194.2L465.6,191.4L464.2,187.3L460.3,189.3L455.4,178.6L451.2,184.1L443.9,185.7L440.8,191.4Z" fill="#D5AE3D" data-zona="3" stroke="#0B2A20" stroke-width="0.6" stroke-opacity="0.25"><title>Santo Adriano · Centro (Oviedo): 1182 kWh/kWp·año</title></path>
<path d="M597.7,115.0L592.0,125.2L594.6,131.7L602.1,135.7L601.1,141.3L606.4,142.9L626.7,138.5L631.0,135.4L631.0,129.1L625.3,126.0L605.4,123.7Z" fill="#EBCF86" data-zona="6" stroke="#0B2A20" stroke-width="0.6" stroke-opacity="0.25"><title>Sariego · Cuencas del Nalón: 1143 kWh/kWp·año</title></path>
<path d="M509.4,130.1L506.4,130.7L509.8,140.6L514.2,143.4L515.1,147.1L519.7,147.4L526.1,161.0L525.8,165.2L535.4,164.8L538.7,166.5L538.9,170.8L541.9,170.8L543.1,166.3L546.8,167.8L550.9,165.1L554.0,170.6L561.2,172.7L570.8,167.6L575.0,172.4L586.5,177.5L591.0,173.2L591.1,167.3L594.9,162.1L604.4,159.3L604.2,154.0L609.1,145.9L609.2,142.2L601.1,141.3L602.1,135.7L594.6,131.7L592.6,126.7L597.7,115.0L583.2,115.1L575.3,109.0L561.4,109.4L555.6,103.2L548.2,110.9L545.4,107.7L542.2,112.3L533.7,110.7L525.1,122.5L521.8,122.3L516.9,131.0L513.5,128.8ZM553.1,145.2L545.9,144.1L547.4,137.2L552.1,132.6L556.2,141.3ZM563.2,125.5L558.1,124.4L563.6,116.3L566.1,122.1Z" fill="#EBCF86" data-zona="6" stroke="#0B2A20" stroke-width="0.6" stroke-opacity="0.25"><title>Siero · Cuencas del Nalón: 1143 kWh/kWp·año</title></path>
<path d="M622.4,260.4L623.4,265.9L628.8,269.6L630.5,274.5L637.7,277.0L643.3,274.2L644.3,268.8L648.5,266.3L654.3,256.3L654.6,246.5L659.3,243.4L655.7,232.6L657.6,226.5L661.4,225.9L661.3,220.1L656.4,212.0L638.6,211.4L640.7,216.8L639.7,222.2L637.0,223.7L637.2,230.0L634.7,231.5L634.2,239.0L628.3,243.3L627.3,258.8Z" fill="#EBCF86" data-zona="6" stroke="#0B2A20" stroke-width="0.6" stroke-opacity="0.25"><title>Sobrescobio · Cuencas del Nalón: 1143 kWh/kWp·año</title></path>
<path d="M308.0,261.4L309.4,265.6L303.1,267.3L301.3,273.1L302.8,287.5L306.7,290.5L305.5,303.6L308.6,314.1L317.9,319.4L320.4,327.2L332.1,329.5L335.8,324.6L343.9,335.0L353.1,335.8L357.7,338.7L356.5,331.5L361.9,319.0L369.5,321.3L372.3,317.9L375.8,318.7L381.7,326.3L387.0,326.2L391.4,332.5L406.3,327.5L408.9,323.7L407.0,318.1L408.2,308.9L412.1,304.2L406.6,298.2L396.0,296.8L391.1,288.6L376.1,282.5L369.7,284.6L364.5,280.4L364.0,278.2L371.0,276.8L370.2,269.5L360.9,256.9L363.4,253.4L361.9,248.7L357.8,249.7L352.6,242.0L342.8,247.3L338.9,253.9L326.4,252.1L314.9,245.7Z" fill="#1E7B45" data-zona="1" stroke="#0B2A20" stroke-width="0.6" stroke-opacity="0.25"><title>Somiedo · Suroccidente (Narcea): 1243 kWh/kWp·año</title></path>
<path d="M422.8,51.7L422.4,48.9L414.2,51.4L411.4,59.3L414.2,65.9L407.7,66.9L414.0,75.9L411.2,87.0L423.3,96.0L425.6,88.0L430.2,87.8L434.4,81.0L433.3,77.3L436.0,70.2L433.3,64.8L426.8,60.2L426.3,53.7Z" fill="#819740" data-zona="2" stroke="#0B2A20" stroke-width="0.6" stroke-opacity="0.25"><title>Soto del Barco · Avilés y bajo Nalón: 1210 kWh/kWp·año</title></path>
<path d="M88.8,47.2L87.7,53.1L85.7,50.5L78.0,56.5L75.3,55.1L69.6,57.9L76.1,70.5L82.7,69.1L83.3,65.6L90.8,62.9L97.3,68.2L95.9,75.1L90.6,71.2L89.0,73.7L92.9,79.6L91.6,82.5L85.9,79.9L83.5,84.1L81.2,81.1L84.8,90.6L84.1,98.4L92.6,97.4L89.8,105.1L94.5,102.1L99.3,93.6L102.2,93.0L109.6,102.5L116.0,82.6L110.8,79.3L114.4,74.7L111.6,72.4L115.2,64.1L112.6,56.0L114.6,53.7L109.7,50.0L101.9,51.6L100.4,48.3L96.7,49.3L96.2,47.2L91.9,49.8Z" fill="#F3E9C8" data-zona="0" stroke="#0B2A20" stroke-width="0.6" stroke-opacity="0.25"><title>Tapia de Casariego · Occidente costero: 1112 kWh/kWp·año</title></path>
<path d="M18.0,148.9L20.6,151.4L19.4,173.2L25.2,175.3L31.8,188.0L38.5,188.7L40.6,185.9L47.4,185.1L60.7,163.0L57.6,158.8L59.4,156.9L56.4,145.7L58.2,142.2L54.6,141.2L52.5,128.9L45.6,123.4L42.3,124.3L39.3,133.7L36.8,135.8L32.8,133.7L31.5,147.6L25.7,142.3Z" fill="#F3E9C8" data-zona="0" stroke="#0B2A20" stroke-width="0.6" stroke-opacity="0.25"><title>Taramundi · Occidente costero: 1112 kWh/kWp·año</title></path>
<path d="M361.6,254.7L371.4,274.7L371.0,276.8L364.0,278.2L367.8,283.2L369.7,284.6L376.1,282.5L391.1,288.6L396.0,296.8L406.6,298.2L417.5,309.5L423.0,308.2L434.7,315.6L440.9,313.4L441.8,308.0L437.7,298.7L440.5,289.1L436.8,283.9L433.4,284.1L432.9,275.9L428.6,272.5L427.3,262.7L407.8,245.7L405.4,236.5L407.7,226.7L404.0,222.4L399.9,223.8L394.9,230.5L383.8,231.9L381.9,238.3L374.2,241.4L367.3,251.1Z" fill="#F0DEAC" data-zona="5" stroke="#0B2A20" stroke-width="0.6" stroke-opacity="0.25"><title>Teverga · Cuencas del Caudal: 1125 kWh/kWp·año</title></path>
<path d="M193.3,154.2L193.4,157.5L190.4,159.8L192.1,164.4L188.6,172.2L189.8,174.9L186.6,181.0L204.5,187.5L210.8,193.0L219.8,194.4L221.9,202.1L229.8,214.0L234.8,218.1L240.1,217.5L243.9,221.6L247.9,221.3L251.8,216.0L273.7,201.4L280.3,212.1L291.7,211.0L300.9,225.4L303.4,256.8L306.0,260.9L310.0,259.5L318.1,237.4L316.4,233.9L318.8,232.4L318.8,227.7L324.6,223.8L315.5,214.7L314.7,207.1L319.9,204.4L317.8,191.7L323.9,187.6L329.0,177.6L324.6,173.1L330.6,163.2L317.2,155.7L320.4,149.1L312.2,140.2L311.0,137.7L313.4,134.6L306.8,120.9L299.1,126.2L294.7,138.2L281.8,133.0L280.3,125.0L274.3,122.4L272.9,117.1L268.2,118.7L265.2,115.7L257.5,120.7L251.9,117.5L249.9,120.0L243.7,117.2L234.4,106.6L219.1,108.7L214.1,118.8L201.0,130.5L202.6,134.9Z" fill="#1E7B45" data-zona="1" stroke="#0B2A20" stroke-width="0.6" stroke-opacity="0.25"><title>Tineo · Suroccidente (Narcea): 1243 kWh/kWp·año</title></path>
<path d="M29.3,123.6L30.5,131.2L36.8,135.8L40.9,131.7L42.3,124.3L45.6,123.4L52.5,128.9L54.6,141.2L58.2,142.2L56.4,145.7L59.4,156.9L57.6,158.8L67.6,154.2L72.1,159.4L74.5,158.8L76.7,148.3L84.7,150.8L79.8,137.7L88.1,119.3L84.3,118.5L78.6,123.8L77.2,128.5L70.0,117.9L71.6,112.1L66.8,111.5L63.6,106.1L67.3,99.0L51.9,100.9L44.8,99.2L34.1,109.4L36.0,114.8L30.7,116.2L31.7,120.2L28.6,120.3Z" fill="#F3E9C8" data-zona="0" stroke="#0B2A20" stroke-width="0.6" stroke-opacity="0.25"><title>Vegadeo · Occidente costero: 1112 kWh/kWp·año</title></path>
<path d="M47.4,185.1L55.2,184.1L54.9,191.1L61.1,196.2L63.5,206.5L69.8,208.8L73.7,207.3L75.7,201.1L80.1,200.7L82.5,181.5L92.4,166.2L96.9,163.1L89.7,147.6L84.7,150.8L76.7,148.3L74.5,158.8L72.1,159.4L67.6,154.2L57.6,158.8L60.6,163.3Z" fill="#F3E9C8" data-zona="0" stroke="#0B2A20" stroke-width="0.6" stroke-opacity="0.25"><title>Villanueva de Oscos · Occidente costero: 1112 kWh/kWp·año</title></path>
<path d="M595.5,61.1L598.3,66.0L597.1,68.9L601.9,72.5L601.5,76.4L606.1,84.8L603.3,84.4L597.9,93.0L597.7,115.0L605.4,123.7L625.3,126.0L629.8,130.2L649.2,131.4L653.4,127.0L653.9,119.2L662.6,118.0L669.9,125.5L675.9,126.5L679.2,133.7L686.6,123.5L689.6,123.5L691.0,111.2L688.7,106.3L691.0,102.9L688.1,92.2L691.4,81.5L700.4,75.8L700.0,68.6L686.9,67.8L684.5,69.9L677.6,65.3L676.0,67.9L672.4,67.7L672.5,70.3L671.6,67.3L671.5,70.5L671.2,64.9L667.3,63.1L668.1,60.1L662.1,57.5L655.1,60.0L639.9,59.3L632.0,63.1L630.0,60.3L622.8,59.1L618.9,62.3L604.2,59.6Z" fill="#9C9E3F" data-zona="4" stroke="#0B2A20" stroke-width="0.6" stroke-opacity="0.25"><title>Villaviciosa · Gijón y Cabo Peñas: 1201 kWh/kWp·año</title></path>
<path d="M152.4,163.3L150.0,172.5L161.5,179.4L177.5,161.7L183.0,150.4L194.4,153.3L202.6,134.9L200.7,131.1L206.4,124.6L203.8,116.9L196.4,114.5L202.6,98.1L199.9,92.0L193.8,89.4L180.2,89.3L174.9,86.1L171.7,88.2L171.9,94.1L167.1,97.4L175.0,98.9L167.4,112.8L173.2,116.7L157.2,124.7L159.1,126.5L158.1,140.4Z" fill="#F3E9C8" data-zona="0" stroke="#0B2A20" stroke-width="0.6" stroke-opacity="0.25"><title>Villayón · Occidente costero: 1112 kWh/kWp·año</title></path>
<path d="M388.4,231.6L397.6,228.6L411.9,213.2L412.0,198.8L416.4,195.1L411.3,186.8L401.1,191.5L392.5,199.2L393.4,210.3L389.9,218.1Z" fill="#D5AE3D" data-zona="3" stroke="#0B2A20" stroke-width="0.6" stroke-opacity="0.25"><title>Yernes y Tameza · Centro (Oviedo): 1182 kWh/kWp·año</title></path>
</svg>